<?xml version="1.0" encoding="UTF-8" standalone="no"?>
<!-- Created with Inkscape (http://www.inkscape.org/) -->

<svg
   version="1.1"
   id="svg18"
   width="2666.6667"
   height="2666.6667"
   viewBox="0 0 2666.6667 2666.6667"
   xmlns="http://www.w3.org/2000/svg"
   xmlns:svg="http://www.w3.org/2000/svg">
  <defs
     id="defs22" />
  <g
     id="g26"
     transform="matrix(1.3333333,0,0,-1.3333333,0,2666.6667)">
    <g
       id="g28"
       transform="scale(0.1)">
      <path
         d="M 6287.53,7770.8 V 5250.5 L 7927.21,5685.7 7400.89,7872 6287.53,7770.8"
         style="fill:#1b1918;fill-opacity:1;fill-rule:nonzero;stroke:none"
         id="path30" />
      <path
         d="m 13514.5,7913 c -59.4,82.7 -168,113.6 -262.1,74.6 l -1442,-597.7 c -231.4,-96 -480,-143.7 -730.5,-140.2 l -922.9,12.8 c -84.6,1.2 -151.4,72.3 -147.1,156.8 3.2,64.3 47.2,119.3 109.2,136.5 l 937.2,260.4 c 111.8,31 178.4,145.5 150.3,258 v 0 c -23.8,95.3 -109.4,162.1 -207.6,162.1 H 9592.27 c -184.19,0 -366.95,-32.3 -539.98,-95.4 l -1125.08,-410.6 374.49,-1680.2 340.78,83.3 c 76.26,18.6 154.21,29.5 232.67,32.4 l 2259.15,83.7 c 232.4,8.6 457.6,82.6 649.9,213.4 l 1675.6,1140.7 c 102,69.4 126.7,209.2 54.7,309.4 v 0"
         style="fill:#1b1918;fill-opacity:1;fill-rule:nonzero;stroke:none"
         id="path32" />
      <path
         d="M 10538.5,9430.7 H 5538.54 c 0,0 111.34,-303.7 657.9,-303.7 h 627.52 c 0,0 81.14,-637.6 479.44,-637.6 h 3164.3 3164.3 c 398.3,0 479.4,637.6 479.4,637.6 h 769.2 c 546.6,0 657.9,303.7 657.9,303.7 h -5000"
         style="fill:#1b1918;fill-opacity:1;fill-rule:nonzero;stroke:none"
         id="path34" />
      <path
         d="m 8658.29,12467.4 c -47.46,-50.3 -96.26,-98.7 -140.52,-151.5 l -33.86,-38.8 -16.91,-19.4 c -5.52,-6.5 -10.77,-13.3 -16.16,-20 l -64.18,-80.2 c -82.94,-108.9 -160.76,-220.9 -230.31,-337.5 -138.67,-233.5 -251.21,-480.2 -334.04,-735 -41.66,-127.3 -76.61,-256.2 -103.56,-385.9 -14.01,-64.6 -25.08,-129.6 -34.81,-194 -4.77,-32.2 -8.93,-64.3 -12.33,-95.9 l -2.5,-23.7 -2.01,-23.2 c -0.76,-7.8 -1.1,-15 -1.65,-22.5 -0.29,-3.8 -0.45,-7.2 -0.56,-10.4 l -0.21,-5 c -0.08,-1 -0.04,-1.4 0.02,-1.7 l 0.1,-1 -502.5,60.1 1.85,10.3 1.64,8.1 c 1.09,5.4 2.19,10.7 3.31,15.5 2.24,9.8 4.4,20 6.76,29.4 l 6.98,28.7 7.34,28 c 9.85,37.2 20.34,73.7 31.42,109.8 22.34,72.1 45.94,143.1 72.4,212.7 51.89,139.6 111.67,275.1 178.02,406.8 132.12,263.5 293.53,510.2 477.96,735.3 92.41,112.4 192.29,218 295.99,318.4 l 79.5,73.5 c 6.64,6.1 13.15,12.3 19.91,18.2 l 20.62,17.5 41.2,34.9 c 53.93,47.5 112.03,90.1 168.34,134.2 230.45,170.3 479.46,310.4 738.31,420.2 -239.73,-147.3 -460.59,-320.5 -655.56,-515.9 z m 1809.41,1082.7 c -2096.23,0 -3795.56,-1699.3 -3795.56,-3795.5 h 7591.06 c 0,2096.2 -1699.3,3795.5 -3795.5,3795.5"
         style="fill:#1b1918;fill-opacity:1;fill-rule:nonzero;stroke:none"
         id="path36" />
      <path
         d="m 10567.7,13829.2 c 209,45.8 365.6,231.9 365.6,454.7 0,257.1 -208.5,465.6 -465.6,465.6 -257.1,0 -465.6,-208.5 -465.6,-465.6 0,-222.8 156.5,-408.9 365.6,-454.7 v -279.1 h 100 100 v 279.1"
         style="fill:#1b1918;fill-opacity:1;fill-rule:nonzero;stroke:none"
         id="path38" />
    </g>
  </g>
</svg>
